<svg width="800" height="600" viewBox="0 0 800 600" fill="none" xmlns="http://www.w3.org/2000/svg">
  <defs>
    <linearGradient id="cardGradient" x1="0" y1="0" x2="1" y2="1">
      <stop offset="0%" stop-color="#6366f1" stop-opacity="0.8"/>
      <stop offset="100%" stop-color="#8b5cf6" stop-opacity="0.9"/>
    </linearGradient>
    <linearGradient id="qrGradient" x1="0" y1="0" x2="1" y2="1">
      <stop offset="0%" stop-color="#4f46e5"/>
      <stop offset="100%" stop-color="#7c3aed"/>
    </linearGradient>
  </defs>
  
  <!-- Background Shapes -->
  <path d="M0 300C0 134.315 134.315 0 300 0H500C665.685 0 800 134.315 800 300V600H0V300Z" fill="url(#cardGradient)" opacity="0.1"/>
  
  <!-- Card -->
  <rect x="100" y="150" width="300" height="200" rx="20" fill="url(#cardGradient)"/>
  <circle cx="150" cy="200" r="25" fill="white" opacity="0.8"/>
  <rect x="140" y="280" width="150" height="20" rx="10" fill="white" opacity="0.6"/>
  <rect x="140" y="310" width="100" height="15" rx="7.5" fill="white" opacity="0.4"/>
  
  <!-- QR Code Frame -->
  <rect x="500" y="150" width="200" height="200" rx="20" fill="url(#qrGradient)"/>
  <rect x="525" y="175" width="150" height="150" rx="10" fill="white"/>
  
  <!-- QR Code Pattern (Simplified) -->
  <rect x="545" y="195" width="110" height="110" fill="#1a1a1a"/>
  <rect x="565" y="215" width="70" height="70" fill="white"/>
  <rect x="585" y="235" width="30" height="30" fill="#1a1a1a"/>
  
  <!-- Decorative Elements -->
  <circle cx="700" cy="100" r="50" fill="url(#cardGradient)" opacity="0.2"/>
  <circle cx="100" cy="500" r="70" fill="url(#qrGradient)" opacity="0.2"/>
</svg>